<svg width="167" height="30" viewBox="0 0 167 30" fill="none" xmlns="http://www.w3.org/2000/svg">
<g clip-path="url(#clip0_3_3)">
<path d="M49.0054 20.7609H43.3884L42.624 22.5118H38.2574L45.245 7.32115H47.1323L54.1317 22.5118H49.7626L49.0054 20.7609ZM47.7362 17.8475L46.1981 14.2917L44.6481 17.8475H47.7362Z" fill="white"/>
<path d="M66.8047 18.77V22.5118H57.0546V7.50706H61.0462V18.77H66.8047Z" fill="white"/>
<path d="M85.1443 15.353C85.1443 19.9137 81.6906 22.8648 77.4183 22.8648C72.6411 22.8648 69.0293 19.3089 69.0293 15.0282C69.0293 10.7476 72.6505 7.14465 77.3145 7.14465C79.2277 7.17289 81.4405 7.98243 82.6814 9.12614L80.4686 12.1525C79.6092 11.3552 78.4876 10.8983 77.3145 10.8676C76.2079 10.8718 75.1472 11.3091 74.3606 12.0854C73.574 12.8618 73.1243 13.9151 73.1082 15.0188C73.1082 17.1227 74.7973 19.1701 77.5763 19.1701C79.3952 19.1701 80.6927 18.2946 80.7493 16.8615H77.305V13.8845H85.0216C85.0991 14.3703 85.1401 14.8611 85.1443 15.353Z" fill="white"/>
<path d="M87.8643 15.0282C87.8643 10.5216 91.4478 7.10699 96.1211 7.10699C100.794 7.10699 104.378 10.5216 104.378 15.0282C104.378 19.4995 100.797 22.893 96.1211 22.893C91.4454 22.893 87.8643 19.4948 87.8643 15.0282ZM100.339 15C100.339 12.682 98.5085 10.8958 96.1211 10.8958C93.7337 10.8958 91.9031 12.682 91.9031 15C91.9031 17.318 93.7314 19.0853 96.1211 19.0853C98.5109 19.0853 100.339 17.3086 100.339 15Z" fill="white"/>
<path d="M115.787 22.5118L111.764 16.0025V22.5118H107.77L107.751 7.50706H113.472C116.718 7.50706 119.042 9.69328 119.042 12.3831C119.045 13.2428 118.803 14.0856 118.343 14.8128C117.884 15.5401 117.226 16.1217 116.447 16.4896L120.479 22.5118H115.787ZM111.745 14.0963H113.378C114.227 14.0963 115.001 13.5104 115.001 12.5879C115.001 11.6654 114.218 11.0817 113.378 11.0817H111.745V14.0963Z" fill="white"/>
<path d="M125.355 7.50706H129.349V22.5118H125.355V7.50706Z" fill="white"/>
<path d="M145.721 11.23H142.119V22.5118H138.108V11.23H134.506V7.50706H145.721V11.23Z" fill="white"/>
<path d="M167 7.36822V22.5118H163.013V16.5626L158.958 22.26H158.93L154.872 16.5626V22.5118H150.878V7.36822H152.482L158.939 16.1908L165.396 7.36822H167Z" fill="white"/>
<path d="M25.5938 18.7065L22.0433 26.6089L17.856 29.9459V25.1334L22.9964 14.0351L15.1925 0L5.21123 19.709L10.2597 19.7655L15.1925 10.3899L17.3063 13.9057L11.8261 25.1334H2.46289L0 30H17.7875H17.856H31.8737L25.5938 18.7065Z" fill="#FFE000"/>
<path d="M18.2523 27.1807V29.1175L19.755 27.9409C19.755 27.9409 18.7076 28.0044 18.2523 27.1807Z" fill="#E0C600"/>
<path d="M19.0402 25.2675L19.2077 25.3428C19.2709 25.3732 19.3396 25.3906 19.4097 25.3942C19.4797 25.3977 19.5498 25.3872 19.6158 25.3633C19.6817 25.3394 19.7422 25.3026 19.7937 25.255C19.8451 25.2074 19.8865 25.1501 19.9154 25.0863L24.1382 16.0025L23.3975 14.6682L18.7854 24.5686C18.7273 24.6951 18.7214 24.8394 18.7691 24.9702C18.8168 25.101 18.9142 25.2078 19.0402 25.2675Z" fill="#FFE000"/>
<path d="M20.6397 26.1947L20.8048 26.2724C20.868 26.3027 20.9367 26.3202 21.0068 26.3237C21.0768 26.3272 21.1469 26.3167 21.2129 26.2928C21.2788 26.2689 21.3393 26.2321 21.3908 26.1845C21.4422 26.137 21.4836 26.0796 21.5125 26.0158L25.2423 17.9887L24.4992 16.652L20.3825 25.4981C20.3536 25.5607 20.3372 25.6284 20.3345 25.6972C20.3317 25.7661 20.3426 25.8349 20.3665 25.8995C20.3903 25.9642 20.4267 26.0236 20.4736 26.0742C20.5205 26.1249 20.5769 26.1658 20.6397 26.1947Z" fill="#FFE000"/>
</g>
<defs>
<clipPath id="clip0_3_3">
<rect width="167" height="30" fill="white"/>
</clipPath>
</defs>
</svg>
